<?xml version="1.0" encoding="UTF-8"?><svg xmlns="http://www.w3.org/2000/svg" width="429" height="205" xmlns:xlink="http://www.w3.org/1999/xlink" viewBox="0 0 429 205"><defs><clipPath id="uuid-ba8be0bf-206e-4d80-b35f-8dfb63d6e4ce"><rect x="-1454.03" y="-1037.11" width="500" height="500" fill="none"/></clipPath></defs><g id="uuid-77273ddc-8d59-4efc-9251-6f2d85afd9d5"><path d="m113.22,33.76c0,12.18-6.74,21.74-15.22,21.74-6.74,0-11.74-4.35-11.74-10.44,0-10,10-9.57,10-18.7,0-4.35-3.7-6.74-8.92-6.74-19.79,0-39.58,33.92-39.58,77.63,0,20.66,12.18,29.79,25.22,29.79,11.09,0,19.14-8.26,24.14-13.27,2.18-2.17,3.7-3.7,5.44-3.7,1.52,0,2.83.87,2.83,2.39,0,1.96-.87,3.91-2.18,6.74-4.78,10.44-23.05,34.79-49.36,34.79-23.49,0-47.19-14.79-47.19-50.88C6.66,45.07,47.32,6.36,82.99,6.36c18.7,0,30.23,9.57,30.23,27.4Z" fill="#fff"/><path d="m167.58,151.62c-12.4,0-17.4-10.22-17.83-11.31-.44.44-8.92,11.31-26.31,11.31-13.7,0-25.44-8.7-25.44-25.44,0-21.53,13.05-43.49,44.14-43.49,11.52,0,15.88,4.13,19.35,4.13,5.44,0,15.22-4.13,20.22-4.13,1.96,0,3.26.87,3.26,3.26,0,5.22-7.61,22.18-7.61,39.14,0,5.66,3.48,8.92,7.39,8.92,3.7,0,5.44-1.74,8.26-4.57,1.52-1.52,2.39-2.18,3.7-2.18,1.96,0,3.05,1.74,3.05,3.04,0,2.39-1.31,4.13-3.48,6.96-4.57,5.87-15,14.35-28.71,14.35Zm-21.96-56.97c-7.39,0-15,19.35-15,33.71,0,4.57,1.96,8.05,5.22,8.05,7.61,0,13.7-24.14,13.7-37.62,0-2.61-1.3-4.13-3.91-4.13Z" fill="#fff"/><path d="m229.34,90.52c2.83-3.05,9.79-7.83,19.57-7.83,13.7,0,23.92,6.09,23.92,22.18,0,21.09-16.09,46.75-46.32,46.75-22.18,0-34.36-11.53-34.36-28.05,0-20.88,15-45.45,15-73.72,0-7.18-2.61-10.65-7.18-10.65-2.18,0-3.26-.87-3.26-2.61,0-4.57,13.48-11.74,25.88-11.74,11.52,0,18.7,6.09,18.7,16.96s-10,38.71-11.96,48.71Zm-1.52,48.06c6.96,0,14.13-25.88,14.13-34.36,0-3.91-1.3-5.87-4.79-5.87-5.65,0-13.7,21.09-13.7,35.23,0,2.83,1.52,5,4.35,5Z" fill="#fff"/><path d="m276.1,133.57c0-13.92,7.18-28.05,7.18-35.88,0-3.7-1.3-4.13-1.3-6.96,0-4.79,14.79-8.05,27.4-8.05,4.78,0,7.39,1.96,7.39,5.65,0,8.7-6.96,22.4-6.96,38.49,0,4.35,3.48,7.18,6.52,7.18s5-1.74,7.83-4.57c1.52-1.52,2.39-2.18,3.7-2.18,1.96,0,3.04,1.74,3.04,3.04,0,2.39-1.3,4.13-3.48,6.96-4.57,5.87-13.92,14.35-27.62,14.35s-23.7-8.05-23.7-18.05Zm30.01-91.99c7.83,0,14.35,5,14.35,11.53,0,10.87-8.92,18.05-17.18,18.05-8.91,0-14.35-5.22-14.35-11.74,0-8.7,6.74-17.83,17.18-17.83Z" fill="#fff"/><path d="m409.61,135.31c2.61,0,4.13-.87,5.87-2.18,1.52-1.09,2.17-1.74,3.26-1.74,1.52,0,2.39,1.09,2.39,2.39,0,1.74-1.09,3.48-2.61,5.44-5,6.52-13.05,12.4-24.36,12.4-12.4,0-22.18-7.4-22.18-16.75,0-13.26,6.96-22.61,6.96-31.1,0-2.83-1.52-4.57-3.91-4.57-3.7,0-6.74,2.83-11.52,12.4-3.7,7.39-9.35,25.88-9.35,34.36,0,3.7-1.52,4.57-4.78,4.57-6.52,0-18.27,1.09-21.53,1.09-2.83,0-4.57-1.09-4.57-4.79,0-8.05,9.13-37.4,9.13-49.14,0-3.7-1.52-4.13-1.52-6.96,0-4.79,14.35-8.05,26.97-8.05,4.78,0,7.39,1.96,7.39,5.65,0,3.48-1.3,8.26-1.3,8.26,3.91-4.78,15.88-13.92,28.7-13.92,11.96,0,17.83,5.44,17.83,13.7,0,10-5.87,22.18-5.87,32.4,0,3.91,1.95,6.52,5,6.52Z" fill="#fff"/><path d="m95.11,168.87c0-1.16.88-1.79,2.01-1.79s1.95.63,1.95,1.79v20.67c0,1.16-.82,1.79-1.95,1.79s-2.01-.63-2.01-1.79v-20.67Z" fill="#fff"/><path d="m130.16,187.44c-.13-2.48-.28-5.15-.28-7.63v-11.03c0-1.1.85-1.7,1.85-1.7s1.82.6,1.82,1.7v19.54c0,1.98-1.07,3.02-2.67,3.02-1.76,0-2.64-.6-3.77-3.14l-5.09-11.59c-.94-2.14-1.6-3.93-2.29-6.03h-.25c.06,2.32.16,4.68.16,7v12.06c0,1.1-.78,1.7-1.82,1.7s-1.85-.6-1.85-1.7v-19.63c0-1.89.97-2.92,2.7-2.92,2.07,0,3.17.85,4.21,3.24l4.4,10.18c1.01,2.29,1.82,4.56,2.64,6.94h.25Z" fill="#fff"/><path d="m159.47,189.54c0,1.16-.82,1.79-1.95,1.79s-2.01-.63-2.01-1.79v-18.97h-5.53c-1.01,0-1.54-.72-1.54-1.6s.53-1.6,1.54-1.6h15.05c1.01,0,1.54.72,1.54,1.6s-.53,1.6-1.54,1.6h-5.56v18.97Z" fill="#fff"/><path d="m195.69,187.85c1.01,0,1.54.72,1.54,1.6s-.53,1.6-1.54,1.6h-9.49c-3.71,0-4.74-1.22-4.74-4.24v-15.2c0-3.02,1.04-4.24,4.74-4.24h8.67c1.01,0,1.54.72,1.54,1.6s-.53,1.6-1.54,1.6h-7.76c-1.44,0-1.76.41-1.76,1.66v4.84h7.73c1.01,0,1.54.72,1.54,1.6s-.53,1.6-1.54,1.6h-7.73v5.91c0,1.26.32,1.67,1.76,1.67h8.57Z" fill="#fff"/><path d="m215.98,189.54c0,1.16-.76,1.79-1.89,1.79s-1.95-.63-1.95-1.79v-18.19c0-3.02,1.1-4.24,4.71-4.24h3.3c5.34,0,7.79,2.48,7.79,6.57,0,3.3-1.82,5.37-4.21,6.35l5.25,8.2c.28.44.44.76.44,1.16,0,1.1-1.04,1.95-2.2,1.95-.66,0-1.23-.44-1.67-1.16l-5.65-9.52h-3.93v8.89Zm3.93-11.81c2.73,0,4.24-1.48,4.24-3.9s-1.47-3.64-4.24-3.64h-2.17c-1.45,0-1.76.41-1.76,1.66v5.88h3.93Z" fill="#fff"/><path d="m249.27,169.31c.57-1.57,1.44-2.23,2.89-2.23s2.39.66,2.92,2.2l6.82,19.48c.09.28.16.6.16.85,0,1.04-.85,1.73-2.17,1.73-.91,0-1.41-.47-1.63-1.19l-2.26-7.07h-7.82l-2.29,7.07c-.25.72-.78,1.19-1.66,1.19-1.29,0-2.04-.69-2.04-1.63,0-.28.06-.63.16-.91l6.94-19.48Zm2.7,1.38c-.44,1.66-.91,3.45-1.38,4.93l-1.42,4.4h5.84l-1.41-4.46c-.47-1.51-.97-3.2-1.42-4.87h-.22Z" fill="#fff"/><path d="m292.72,168.91c.85.63,1.16,1.13,1.16,1.89,0,1.01-.88,1.82-1.85,1.82-.57,0-1.01-.13-1.48-.6-1.41-1.35-2.79-1.85-4.46-1.85-3.8,0-6.53,3.39-6.53,9.05s2.8,9.05,6.53,9.05c1.98,0,3.49-.47,5.06-1.85.38-.34.85-.53,1.32-.53.97,0,1.79.69,1.79,1.63,0,.63-.22,1.04-.69,1.44-2.1,1.82-4.62,2.61-7.48,2.61-5.94,0-10.52-4.37-10.52-12.34s4.62-12.35,10.52-12.35c2.61,0,4.65.63,6.63,2.04Z" fill="#fff"/><path d="m318.16,189.54c0,1.16-.82,1.79-1.95,1.79s-2.01-.63-2.01-1.79v-18.97h-5.53c-1.01,0-1.54-.72-1.54-1.6s.53-1.6,1.54-1.6h15.05c1.01,0,1.54.72,1.54,1.6s-.53,1.6-1.54,1.6h-5.56v18.97Z" fill="#fff"/><path d="m340.15,168.87c0-1.16.88-1.79,2.01-1.79s1.94.63,1.94,1.79v20.67c0,1.16-.82,1.79-1.94,1.79s-2.01-.63-2.01-1.79v-20.67Z" fill="#fff"/><path d="m371.18,189.1c-.54,1.57-1.48,2.23-2.92,2.23-1.54,0-2.39-.66-2.89-2.2l-6.28-19.44c-.09-.28-.16-.6-.16-.85,0-1.04.94-1.76,2.23-1.76.85,0,1.51.5,1.7,1.19l4.24,14.51c.44,1.51.75,2.67,1.16,4.37h.22c.47-1.67.79-2.89,1.26-4.37l4.49-14.51c.22-.69.85-1.19,1.73-1.19,1.29,0,2.14.75,2.14,1.67,0,.28-.06.63-.16.91l-6.75,19.44Z" fill="#fff"/><path d="m407.15,187.85c1.01,0,1.54.72,1.54,1.6s-.53,1.6-1.54,1.6h-9.49c-3.71,0-4.74-1.22-4.74-4.24v-15.2c0-3.02,1.04-4.24,4.74-4.24h8.67c1.01,0,1.54.72,1.54,1.6s-.54,1.6-1.54,1.6h-7.76c-1.45,0-1.76.41-1.76,1.66v4.84h7.73c1.01,0,1.54.72,1.54,1.6s-.54,1.6-1.54,1.6h-7.73v5.91c0,1.26.31,1.67,1.76,1.67h8.58Z" fill="#fff"/></g><g id="uuid-ba88b369-a4ab-4dc4-ad0b-2109e50cf7c1"><g id="uuid-88c4fa3d-f826-49fa-8502-5e8d1fa75143"><g clip-path="url(#uuid-ba8be0bf-206e-4d80-b35f-8dfb63d6e4ce)"><path d="m-1474.98,306.68c4.2-4.18,8.93-3.89,13.43-3.88,16.39.03,32.78,0,49.17.41,50.7,1.27,101.39,3.69,152.09,3.93,115.96.55,231.93.31,347.89-.13,44.21-.17,88.47-.74,132.61-3.01,61.2-3.14,122.39-3.33,183.62-3.14,41.16.13,82.17,2.98,123.17,6.28,12.63,1.01,25.3,1.65,37.96,2.4,2.59.15,5.2.02,7.81.02.11-.61.22-1.22.33-1.84-2.75-.89-5.45-2-8.26-2.63-32.61-7.34-65.42-13.36-98.99-13.76-56.58-.67-113.16-1.85-169.73-1.57-34.3.17-68.6,2.39-102.87,4.19-71.66,3.78-143.35,6.07-215.11,5.32-68.96-.73-137.92-1.1-206.86-2.76-66.76-1.61-133.5-4.54-200.23-7.17-11.71-.46-23.38-2.22-35.04-3.61-3.12-.37-6.14-1.62-9.21-2.46.08-.83.16-1.65.24-2.48,3.45-.16,6.91-.61,10.34-.42,20.98,1.21,41.94,2.9,62.94,3.81,37.37,1.62,74.76,3.91,112.14,3.94,86.27.07,172.55-.64,258.81-1.82,53.79-.74,107.62-1.9,161.34-4.66,103.9-5.35,207.76-1.57,311.64-.74,26.27.21,52.59.97,78.77,2.94,19.98,1.5,39.79,5.25,59.67,8.1,28.75,4.11,57.5,8.17,86.22,12.51,31.5,4.76,62.74,10.97,93.1,20.65,21.07,6.72,39.99,17.73,56.1,33.22,2.41,2.32,5.38,4.14,8.28,5.86,52.52,31.09,108.13,54.48,168.35,65.68,54.63,10.16,108.91,9.34,162.11-8.51,34.72-11.65,65.9-29.71,92.91-54.49,19.81-18.18,39.09-36.95,58.46-55.62,20.26-19.53,40.26-39.32,60.51-58.85,23.22-22.4,48.97-41.62,75.86-59.35,3.3-2.17,6.9-3.89,10.33-5.8,4.27,7.02,4.37,10.34-.12,15.29-2.88,3.18-6.17,6.13-9.7,8.57-42.18,29.2-78.41,65.12-114.71,101-24.4,24.12-49.41,47.63-74.06,71.5-29.17,28.24-64.09,45.55-103.03,56.11-34.84,9.45-69.88,15.77-106.14,13.82-11.42-.61-22.88-.49-34.32-.68-19.03-.32-37.34-4.5-55.48-9.88-36.22-10.74-71.15-24.68-105.14-41.13-35.04-16.95-70.42-33.2-105.42-50.24-26.51-12.9-54.75-18.94-83.61-23.01-48.8-6.87-97.92-8.75-147.1-8.86-53.8-.12-107.64-.47-161.41,1.07-173.44,4.97-346.94,3.78-520.41,4.66-51.58.26-103.19-3.34-154.76-5.77-47.54-2.24-95.05-5.27-142.57-8.01-4.13-.24-8.81.6-11.88-4.99Zm1282.94,49.91c-1.61-2.07-1.88-2.76-2.37-3.02-22.74-11.85-45.89-23.27-71.01-28.61-28.93-6.16-58.29-10.36-87.54-14.89-19.81-3.06-39.76-5.24-59.66-7.71-2.11-.26-4.31.2-6.46.32,3.63,2.79,7.32,4.1,11.03,5.38,19.73,6.77,40.43,8.2,60.88,11.03,45.61,6.31,90.57,15.47,134.14,30.71,6.35,2.22,12.81,4.15,20.99,6.78Z" fill="#7a8479"/><path d="m-1249.35,115.57c59.36.64,118.72,1.51,178.09,1.85,52.69.3,104.99-5.09,156.8-14.18,36.75-6.45,73.75-7.42,110.81-8.39,47.02-1.24,93.74-4.91,140.28-12.2,47.61-7.46,95.45-13.45,143.27-19.48,43.9-5.53,87.35-12.59,129.47-26.9,51.53-17.51,96.15-45.98,136.43-82.1,24.39-21.87,49.02-43.5,74.31-64.32,22.45-18.48,46.81-34.37,72.34-48.42,29.4-16.18,61.33-24.48,94.03-29.94,54.34-9.06,108.15-5.38,160.03,12.92,46.38,16.37,89.02,40.36,124.51,75.02,12.29,12,22.49,26.27,32.72,40.19,16,21.76,32.74,42.89,53.99,59.64,26.46,20.86,56.42,34.17,90.45,37.05,2.15.18,4.33.32,6.42.8,2.98.68,4.15,3.13,3.21,5.64-.58,1.54-2.91,3.5-4.39,3.45-6.47-.23-12.97-.77-19.35-1.84-37.46-6.29-73.14-17.84-106.46-36.31-16.41-9.09-30.8-20.5-42.49-35.31-12.65-16.02-24.56-32.47-35.12-50.02-19.62-32.61-45.97-57.83-82.23-71.76-44.56-17.12-90.41-28.53-138.3-26.72-48.93,1.85-96.18,12.11-139.26,36.98-15.63,9.02-29.67,20.2-42.49,32.78-28.9,28.36-57.91,56.64-86.06,85.74-21.99,22.73-45.13,44.04-70.11,63.36-20.93,16.19-44.22,28.31-68.58,38.32-15.9,6.53-32.97,8.53-49.91,9.43-44.14,2.34-88.31,4.37-132.49,5.54-45.48,1.2-90.73,4.29-135.81,10.57-16.5,2.3-33.26,2.68-49.89,4.08-35.41,2.97-70.81,6.19-106.23,9.01-28.97,2.31-57.96,4.34-86.95,6.2-26.84,1.72-53.69,3.48-80.56,4.46-30.89,1.13-61.82,2.1-92.72,1.9-40.81-.27-81.62-1.47-122.41-2.79-25.64-.83-51.23-2.98-76.87-3.83-18.22-.6-36.48-.35-54.71.1-31.28.76-62.43-.58-93.46-4.67-3.67-.48-7.47-.19-11.06-.95-1.63-.35-3.76-2.16-4.16-3.7-.74-2.87,1.38-4.52,4.22-4.82,1.84-.19,3.7-.14,5.55-.1,71.72,1.33,143.44,2.67,215.16,4.02v-.26Z" fill="#7a8479"/><path d="m457.68,98.04c-3.51.57-7.03,1.67-10.54,1.63-38-.35-76.13.89-113.85-4.74-28.31-4.22-53.07-16.24-72.33-38.06-9.61-10.89-19.18-21.83-28.32-33.12-33.03-40.79-72.98-73.66-116.47-102.57-14.79-9.83-31.33-14.77-48.6-16.89-18.37-2.26-36.88-4.04-55.37-4.52-34.79-.9-65.49,10.4-91.92,33.29-20.2,17.49-37.78,37.43-54.25,58.31-25.46,32.28-50.32,65.03-75.59,97.45-8.55,10.97-17.68,21.48-26.35,32.35-14.06,17.64-32.21,29.52-52.7,38.28-25.2,10.77-51.61,16.85-78.63,20.63-39.33,5.51-78.97,4.71-118.51,5.45-117.17,2.18-234.34,4.05-351.51,6.15-57.19,1.03-114.41,1.56-171.56,3.65-93.07,3.39-186.12,1.21-279.18.72-21.95-.12-43.92-.39-65.84-1.33-17.57-.76-35.08-2.77-52.63-3.98-17.89-1.23-35.79-2.14-53.69-3.26-3.07-.19-6.12-.7-9.17-1.16-4.15-.63-5.84-3.19-5.18-7.22.68-4.15,3.73-4.35,7.05-3.94,13.49,1.67,26.96,3.55,40.48,4.97,40.64,4.28,81.47,5.43,122.27,5.32,113.17-.3,226.33-1.06,339.5-2.13,42.35-.4,84.71-1.79,127.03-3.41,65.49-2.51,130.95-5.78,196.44-8.36,33.36-1.31,66.79-1.27,100.14-2.82,41.67-1.93,83.39-3.89,124.92-7.66,38.97-3.54,76.53-14.25,112.55-29.5,39.98-16.92,73.49-43.3,102.33-75.24,22.15-24.52,42.33-50.8,63.78-75.97,15.03-17.64,30.18-35.22,46.23-51.93,19.58-20.38,42.65-35.92,70.67-42.16,12.89-2.87,26.21-4.49,39.41-5.09,33.18-1.5,66.08,1.98,98.66,8.09,27.09,5.08,50.66,17.31,70.99,35.97,26.28,24.12,49.85,50.66,71.41,79.03,5.24,6.89,10.58,13.7,15.73,20.66,23.83,32.15,56.57,49.94,94.85,58.66,22.97,5.23,46.27,7.99,69.84,8.33,4.32.06,8.67.27,12.95.83,1.84.24,3.54,1.55,5.31,2.37-.12.96-.24,1.91-.36,2.87Z" fill="#7a8479"/><path d="m-1473.6,148.2c2.55,0,4.67-.17,6.75.02,91.56,8.63,183.44,8.31,275.25,9.67,72.04,1.07,144.11,2.37,216.14,1.57,58.41-.64,116.79-4.18,175.17-6.56,47.89-1.95,95.76-4.31,143.65-6.06,60.88-2.22,121.79-3.66,182.65-6.12,38-1.53,75.99-4.45,112.98-13.99,52.89-13.65,99.25-39.31,137.46-78.59,27.2-27.96,51.33-58.58,74.44-89.98,7.88-10.7,15.87-21.33,24.05-31.8,26.97-34.56,61.78-56.15,105.09-64.3,61.21-11.51,121.2-7.74,179.93,13.2,31.03,11.07,56.83,29.39,77,55.75,13.7,17.91,27.71,35.66,42.62,52.56,36.03,40.85,82.21,64.54,134.62,76.89,7.45,1.75,15.31,1.74,22.97,2.58,4.9.54,9.82.93,14.66,1.8,3.05.54,6.05,1.76,5.77,7.1-2.65.38-5.5,1.16-8.35,1.15-47.1-.11-91.11-10.39-130.68-37.48-20.11-13.76-38.28-29.13-53.38-48.28-11.68-14.8-24.15-28.97-35.95-43.68-25.37-31.63-57.79-53.23-96.26-64.76-33.53-10.05-68.13-15.78-103.35-14.07-33.68,1.64-65.82,10.24-96.46,24.38-11.38,5.25-21.68,12.22-29.83,21.63-13.54,15.63-26.96,31.43-39.44,47.92-13.6,17.98-25.18,37.52-39.2,55.14-46.05,57.86-101.33,103.25-174.6,122.05-20.55,5.27-41.84,8.36-62.99,10.49-60.32,6.08-120.92,7.77-181.49,9.95-69.84,2.51-139.65,5.68-209.49,8.29-49.13,1.84-98.3,2.84-147.42,4.9-72.33,3.02-144.67,3.15-217.04,3-50.38-.11-100.77,1.97-151.16,1.95-29.65-.01-59.38-1.23-88.91-3.78-19.6-1.69-38.96-6.52-58.35-10.33-7.66-1.5-7.97-2.61-6.86-12.22Z" fill="#7a8479"/><path d="m458.97,161.18c-3.51,2.69-6.29,5.48-9.6,7.26-12.78,6.88-25.61,13.68-38.66,20.02-6.52,3.17-11.99,7.29-17.09,12.39-48.11,48.07-96.18,96.2-144.68,143.87-12.98,12.76-27.1,24.42-41.23,35.93-32.51,26.49-69.94,39.55-111.89,40.99-44.58,1.53-88.28-2.36-130.71-16.9-24.24-8.31-48.55-16.42-72.78-24.75-30.22-10.38-58.77-24.51-86.26-40.55-25.07-14.62-51.72-24.86-79.52-32.46-37.54-10.26-75.07-20.72-113.79-25.63-25.75-3.26-51.59-5.74-77.42-8.36-84.76-8.6-169.83-7.25-254.83-7.55-46.05-.16-92.2-.24-138.16,2.23-144.92,7.8-289.9,6.99-434.9,5-35.23-.48-70.48-1.82-105.66-3.89-22.49-1.32-44.86-4.64-67.27-7.22-2.89-.33-5.67-1.64-8.51-2.5-.12-.72-.24-1.44-.37-2.16,1.91-.9,3.82-2.54,5.74-2.56,9.87-.1,19.93-.93,29.57.64,21.78,3.55,43.7,4.03,65.62,4.7,34.92,1.07,69.9.66,104.77,2.52,118.07,6.31,236.16,3.29,354.24,1.15,54.69-.99,109.35-4.24,164.02-6.41,61.81-2.46,123.62-3.77,185.46-1.48,39.24,1.45,78.5,2.48,117.7,4.59,47.82,2.58,95.62,5.81,142.57,16.36,27.67,6.22,53.42,17.26,78.41,30.31,11.23,5.86,22.29,12.03,33.44,18.04,66.75,35.98,137.27,61.59,211.12,78.83,34.16,7.97,67.4,4.21,101.1-1.43,61.97-10.37,106.71-46.81,143-95.06,40.83-54.28,91.55-96.82,149.85-130.74,11.14-6.48,23.48-10.95,35.43-15.95,3.03-1.27,6.75-3.4,11.3.76Z" fill="#7a8479"/><path d="m456.06,132.11c-4.24,1.21-8.44,2.6-12.73,3.59-29.77,6.88-59.63,13.42-89.33,20.61-16.31,3.95-31.33,11.2-45.58,20.15-27.91,17.55-47.7,41.81-60.01,72.21-4.75,11.73-8.54,23.85-13.25,35.6-21.7,54.12-79.35,97.82-137.37,102.79-16.17,1.39-32.82.16-49-1.87-92.07-11.57-175.23-45.66-250.01-100.44-7.48-5.48-15.09-10.78-22.63-16.17-32.8-23.46-69.54-36.79-109.04-44.04-33.41-6.13-67.02-6.57-100.7-6.15-120.58,1.52-241.15,3.1-361.72,5.04-83.47,1.34-166.92,4.44-250.38,4.73-112.85.39-225.71-.74-338.56-2.2-27.11-.35-54.16-4.56-81.23-7.12-2.62-.25-5.15-1.4-7.71-3.77,2.19-.33,4.43-1.11,6.58-.91,89.73,8.28,179.75,7.72,269.7,8.21,76.36.41,152.75-.49,229.1-1.83,86.87-1.52,173.7-4.68,260.57-6.2,116.24-2.04,232.48-4.23,348.74-.65,53.46,1.65,102.82,16.51,147.99,45.02,24.82,15.67,49.02,32.33,73.96,47.82,43.05,26.74,88.84,48.33,138.22,59.38,70.39,15.76,133.75,1.28,185.04-52.74,10.32-10.87,18.37-23.28,24.77-36.75,4.9-10.32,9.85-20.65,14.05-31.26,16.14-40.73,46.11-67.02,85.81-83.57,39.08-16.29,79.76-26.13,121.74-30.76,7.47-.83,15.05-.74,22.58-1.08.13.79.27,1.58.4,2.37Z" fill="#7a8479"/><path d="m42.5,335.5c-78.96-2.87-150.33-27.31-214.2-73.66-9.8-7.11-18.43-15.38-26.18-24.77-16.39-19.88-21.6-42.22-14.86-66.85,5.37-19.63,11.87-38.97,18.18-58.34,13.16-40.37,37.32-74.36,63.1-107.32,16.01-20.47,33.05-40.1,52.71-57.21,19.4-16.89,41.27-29.23,66.63-34.85,21.08-4.68,42.03-2.78,62.33,3.18,20.4,5.99,40.38,13.5,60.26,21.08,14.58,5.56,26.87,15.23,38.78,25.08,20.97,17.33,41.86,34.77,62.32,52.68,23.42,20.51,40.04,46.06,52.67,74.31,7.55,16.88,8.57,34.37,1.61,51.4-7.23,17.68-15.35,35.07-24.19,52.01-12.74,24.41-27.26,47.86-45.29,68.79-32.82,38.11-74.51,61.47-123.45,71.87-9.88,2.1-20.27,1.79-30.42,2.6Zm197.1-200.05c-.38-8.01-.45-16.05-1.27-24.02-.4-3.92-1.83-7.84-3.4-11.5-8.94-20.83-20.32-40.16-34.91-57.64-19.6-23.47-39.31-46.88-58.02-71.06-11.78-15.22-26.18-25.82-43.97-32.58-23.13-8.79-46.7-16.07-70.86-21.33-5.09-1.11-10.49-2.16-15.59-1.65-28.56,2.88-55.08,11.48-76.86,30.98C-97.88-24.19-127.19,7.96-151.25,44.62c-22.71,34.6-38.3,71.82-41.25,113.66-1.61,22.82,2.02,44.45,14.43,63.94,18.83,29.55,43.1,53.18,75.7,67.35,28.67,12.46,58.19,22.43,88.7,29.18,20.53,4.54,41.21,7.48,62.47,4.3,56.77-8.5,57.76-6.46,108.44-38.42,1.31-.82,2.67-1.61,3.81-2.63,6.67-5.93,13.91-11.37,19.8-18.01,15.23-17.18,26.67-37.01,38.62-56.53,13.62-22.24,21.77-45.63,20.12-72.01Zm2.55,22.27c11.23-13.87,14.07-29.4,10.9-47.6-4.23-24.29-14.26-46.23-30.15-64.69-19.1-22.19-39.88-42.93-60-64.23-1.21-1.28-3.08-1.93-4.64-2.88,1.51,4.38,3.65,7.77,6.16,10.86,10.67,13.19,21.23,26.48,32.23,39.4,13.25,15.56,24.54,32.4,35.11,49.87,11.59,19.16,15.29,39.37,11.77,61.27-.95,5.92-.94,12-1.36,18Z" fill="#7a8479"/><path d="m458.16,16.7c-3.39,0-5.9.46-8.19-.07-22.58-5.22-45.11-10.61-66.13-20.81-25.11-12.18-44.1-29.98-54.8-56.44-7.9-19.54-21.1-35.62-37.77-48.51-28.42-21.97-58.33-41.71-90.71-57.39-12.75-6.18-26.09-11.13-39.15-16.67-4.63-1.97-10.11-2.67-13.63-9.11,3.53-.59,6.09-1.46,8.61-1.35,11.5.49,22.67,2.58,33.29,7.29,43.75,19.4,84.73,43.25,120.85,74.94,6.51,5.71,13.18,11.23,19.58,17.05,20.34,18.48,44,30.51,70.59,37.21,15.56,3.92,30.98,8.43,46.41,12.88,3.21.93,6.45,2.35,9.14,4.3,3.04,2.2,1.96,6.18-1.78,6.74-3.32.49-6.81.42-10.15-.02-21.76-2.86-43.42-6.29-64.36-13.12-4.68-1.53-9.14-3.74-13.75-5.5-2.42-.92-4.94-1.56-7.42-2.32-.48.55-.96,1.1-1.44,1.65,1.85,3.3,3.25,6.96,5.61,9.85,16.14,19.77,35.46,35.26,60.17,43.07,8.53,2.7,17.25,4.81,25.78,7.51,3.88,1.23,8.51,2.15,9.27,8.85Z" fill="#7a8479"/><path d="m456.44,148.04c-5.57,1.42-11.09,3.12-16.72,4.23-51.57,10.19-98.22,30.86-138.7,64.77-13.63,11.41-25.45,24.34-33.82,40.18-.57,1.08-1.34,2.05-2.08,3.04-.15.2-.54.22-1.72.66.22-2.5.15-4.74.66-6.84,3.27-13.53,10.21-25.11,19.29-35.47,11.33-12.92,24.89-23.07,39.66-31.71,31.02-18.14,64.72-28.96,99.67-36.29,9.06-1.9,18.23-3.29,27.38-4.78,2-.33,4.1-.05,6.15-.05.08.75.16,1.51.24,2.26Z" fill="#7a8479"/><path d="m268.73,81.9c1.89.44,4.12.39,5.62,1.41,3.29,2.24,6.54,4.72,9.24,7.64,12.57,13.62,28.47,20.22,46.48,22.47,9.79,1.22,19.62,2.21,29.42,3.34,1.39.16,2.77.51,4.34,2.33-5.3,1.12-10.58,2.31-15.9,3.34-6.35,1.24-12.71,2.48-19.11,3.48-22.86,3.57-39.72,15.8-52.59,35.35.35-2.07.25-4.36,1.13-6.17,3.75-7.76,7.65-15.46,11.74-23.04,6.25-11.56,6.31-12.99-1.84-22.99-4.48-5.5-9.39-10.65-13.9-16.13-2.27-2.76-4.06-5.91-6.07-8.88.48-.71.96-1.42,1.44-2.13Z" fill="#7a8479"/><path d="m-179.85,160.29c.46-19.05,4.73-37.06,13.55-53.65,6.5-12.23,14.19-23.87,21.99-35.34,6.6-9.69,14.57-18.46,21.11-28.19,7.38-10.99,13.92-22.55,20.69-33.94,6.15-10.34,11.32-21.36,18.33-31.07C-60.25-55.02-27.58-70.41,13.38-67.85c23.07,1.44,45.04,7.18,66.2,16.35,18.95,8.21,34.75,20.43,45.57,38.01,9.69,15.75,22.51,27.47,38.51,36.48,8.83,4.97,17.04,11.21,24.95,17.6,20.77,16.78,32.79,39.04,39.01,64.67,2.34,9.63.43,19.11-2.1,28.37-5.02,18.39-13.8,34.9-25.25,50.17-10.55,14.06-20.82,28.36-30.54,43-10.83,16.31-22.51,31.78-37.95,44.04-25.6,20.33-55.41,29.03-87.46,31.83-26.6,2.32-52.34-1.66-77.74-9.17-38.22-11.3-74.23-27.07-105.85-51.83-17.44-13.66-31.52-29.8-36.34-52.11-2.08-9.61-2.87-19.5-4.24-29.26ZM107.5-10.15c.4-.6.79-1.21,1.19-1.81-10.84-13.17-22.39-25.23-40.09-29.42-12.61-2.98-25.03-6.81-37.62-9.9-5.06-1.25-10.48-2.67-15.52-2.1-20.37,2.34-40.34,6.36-57.15,19.35C-54.41-24.21-65.51-13.43-74.1.87c-14.29,23.79-30.92,46.2-47.05,68.84-20.36,28.59-34.94,59.49-41.32,94.24-4.06,22.13,1.28,40.82,16.9,56.98,12.35,12.78,26.06,23.82,41.65,32.22,33.03,17.79,67.42,32.31,104.41,39.67,14.46,2.88,28.93,6.67,44.01,4.15,18.34-3.07,36.53-6.85,53.41-14.78,25.88-12.15,46.63-30.69,60.29-55.69,9.42-17.24,19.39-33.86,33.14-47.78,21.7-21.98,25.11-48.74,21.26-77.38-1.68-12.5-7.31-23.57-16.66-32.4-6.06-5.73-11.8-11.91-18.4-16.95C153.73,33.81,129.8,15.8,105.57-1.8,74.74-24.21,39.54-29.95,2.48-26.93c-7.27.59-14.87,2.22-21.44,5.25-15.38,7.11-30.22,15.37-45.3,23.14-.98.5-2.07.78-4.63,1.72,2.72-6.46,6.98-9.42,11.11-12.33,14.23-10.03,29.83-17.46,45.97-23.81,2.56-1.01,5.32-1.82,8.05-2.08,34.49-3.22,67.94-.66,98.44,18.03,4.12,2.53,8.53,4.58,12.81,6.86Z" fill="#7a8479"/><path d="m32.02-11.9c21.49.52,41.75,4.88,61.11,14.08,29.95,14.24,56.77,32.37,77.67,58.64,11.9,14.96,18.81,31.79,21.48,50.5,1.38,9.64.56,19.16-3.41,28.16-2.12,4.79-4.34,9.59-7.09,14.03-15.79,25.5-32.9,50.07-52.08,73.17-18.93,22.79-42.07,38.92-71.44,45.11-23.24,4.9-46.2,2.32-68.74-3.87-37.13-10.2-70.03-28.64-100.51-52.02-27.41-21.02-34.71-48.35-27.31-80.65,1.98-8.64,5.31-17.11,9.09-25.16,6.69-14.25,14.72-27.87,21.25-42.19C-88.14,24.43-52.67,2.1-7.41-6.84c12.97-2.56,26.28-3.42,39.43-5.06Zm117.57,192.5c-.99.66-2.08,1.21-2.97,1.99-29.18,25.38-62.58,44.02-97.34,60.35-8.89,4.18-18.41,7.09-27.77,10.21-10.91,3.64-21.94,3.45-32.7-.66-9.79-3.74-19.58-7.55-29.14-11.85-12.18-5.48-22.08-13.32-26.74-26.68-1.91-5.48-5.46-10.37-7.99-15.66-2.52-5.28-5.1-10.59-6.95-16.13-4.97-14.89-3-28.36,7.98-40.44,11.31-12.44,23.96-23.2,37.64-32.83,26.84-18.91,55.75-34.28,84.84-49.35,11.85-6.14,23.96-11.42,37.44-12.88,2.16-.23,4.22-1.44,6.32-2.2l.16-2.1c-3.83-1.61-7.53-4.02-11.51-4.67-10.64-1.75-21.37-3.5-32.11-3.88-33.79-1.21-61.9,10.04-83.92,36.96-19.3,23.59-35.46,49.04-49.8,75.72-4.17,7.76-6.46,16.67-8.62,25.3-.97,3.89-.49,8.77.99,12.56,17.71,45.28,53.51,68.05,99.17,76.95,14.08,2.75,28.94,1.82,43.45,1.84,11.89.02,23.02-3.44,33.66-9,31-16.2,49.32-43.87,65.91-73.54Zm-185.55-18.25c1.38,20.18,11.8,34.41,29.02,44.38,7.48,4.33,14.29,4.41,21.58-.59,10.26-7.02,21.52-12,33.59-15.24,9.06-2.43,17.41-6.7,24.21-13.18,11.85-11.29,23.36-22.94,34.9-34.55,4.63-4.66,6.83-9.94,4.47-16.82-1.27-3.71-1.26-7.92-1.46-11.92-.32-6.36-3.02-11.21-8.33-14.67-3.1-2.02-6.14-4.16-9.31-6.07-8.59-5.17-17.52-5.91-26.47-1.19-6.54,3.45-13.04,7.07-19.21,11.14-15.81,10.42-32.41,19.06-50.3,25.45-7.47,2.67-14.66,6.6-21.27,11.03-7.57,5.07-11.58,12.7-11.43,22.24Zm210.3-74.11c.52-.45,1.04-.9,1.55-1.35-3.86-5.5-7.51-11.15-11.6-16.47-17.56-22.86-38.3-42-64.75-54.25-12.79-5.93-26.05-9.72-40.38-7.93-8.58,1.07-17.21,1.88-25.75,3.25C15.94,14.28-1.1,18.21-15.99,28.73c-49.28,34.81-80.3,81.23-91.13,140.95-3.76,20.73,4.52,36.71,17.9,51.12,1.17,1.26,3.16,1.75,4.77,2.6-.42-2.91-1.65-4.61-2.85-6.35-15.59-22.57-19.59-46.39-7.33-71.73,5.92-12.23,11.99-24.42,18.59-36.29,10.54-18.96,22.46-37.05,37.73-52.6C-21.46,39.28-1.8,26.42,22.5,23.56c15.28-1.8,30.85-1.15,46.3-1.38,2.03-.03,4.2.94,6.09,1.89,19.62,9.81,39.23,19.63,58.77,29.61,10.84,5.54,20.25,12.98,28.4,22.07,3.89,4.34,8.17,8.34,12.28,12.5Zm-99.7-14.52c5.5.88,12.2.44,17.33,3.07,15.09,7.73,26.19,19.63,31.02,36.32,3.94,13.61,2.57,26.45-7.77,37.08-10.76,11.07-21.17,22.61-32.86,32.62-21.53,18.44-47.08,29.19-74.59,35.32-9.15,2.04-18.03.39-25.76-4.81-13.2-8.87-22.95-20.71-27.49-36.15-3.8-12.91-2.88-25.03,7.67-35.06,3.35-3.18,5.98-7.11,8.94-10.69-.5-.5-1-1-1.51-1.5-4.88,3.6-9.72,7.26-14.65,10.79-10.07,7.22-12.57,17.07-10.07,28.66,3.05,14.11,9.02,26.91,17.68,38.42,6.75,8.97,15.66,14.55,26.68,17.18,15.71,3.74,30.8,1.61,45.33-4.52,26.03-10.98,50.25-25.18,72.33-42.85,11.74-9.39,20.59-21.09,27.48-34.55,6.54-12.76,5.85-24.82-.42-37.23-5.84-11.55-14.52-20.68-23.96-29.21-10.65-9.62-22.67-10.44-35.38-2.9ZM-5.76,7.77c-1.77.36-3.58.61-5.31,1.1-16.13,4.58-31.37,11.28-45.77,19.82-15.16,8.98-27.84,20.72-36.49,36.13-9.66,17.22-18.77,34.76-27.73,52.36-2.78,5.46-4.59,11.47-6.31,17.38-3.91,13.43-3.74,26.87,1.23,40.02,1.17,3.08,1.98,7.04,5.95,7.7C-106.26,107.79-70.86,48.24-5.76,7.77Zm143.31,83.08c-.73.37-1.46.73-2.19,1.1,2.85,6.36,5.63,12.75,8.57,19.07,7.74,16.64,5.07,32.13-6.13,45.94-6.37,7.86-13.63,15.22-21.43,21.66-22.2,18.35-46.43,33.81-71.91,47.16-8.68,4.55-17.98,8.62-27.49,10.73-29.25,6.51-50.05-2.24-63.39-25.63-4.88-8.55-9.02-17.57-12.91-26.62-5.21-12.11-8.22-24.62-4.06-37.83.23-.73-.21-1.66-.45-3.26-5.55,4.77-7.05,10.62-7.15,16.84-.49,30.43,10.02,55.42,36.03,72.89,10.6,7.12,21.9,10.97,34.76,10.64,26.89-.69,51.68-8.07,74.35-22.54,13.53-8.64,27.06-17.28,40.58-25.94,11.29-7.24,20.96-16.24,29.21-26.8,6.38-8.17,11.29-17.21,12.72-27.44,1-7.19,1.99-15.35-.41-21.82-3.92-10.54-11.28-19.58-18.7-28.16Zm-38.35-29.39c-13.13-5.03-25.43-3.82-37.4,1.73-4.48,2.08-9.21,3.67-13.55,6-17.68,9.48-35.64,18.52-52.74,28.95-14.2,8.66-27.35,19.04-40.96,28.68-1.16.82-2.19,1.83-3.28,2.75,3.8.42,6.96-.37,9.67-1.95,7.74-4.49,15.62-8.85,22.87-14.06,20.43-14.67,42.31-26.73,65.38-36.56,11.61-4.95,23.7-8.8,35.71-12.75,4.57-1.5,9.52-1.88,14.29-2.78Zm25.27-1.68c6.46,6.98,12.96,13.93,19.38,20.95,12.26,13.41,24.91,26.54,31.37,44.1.3.82,1.47,1.32,2.64,2.31,1.95-22.68-27.03-60-53.39-67.36ZM7.36,106.7c11.91-2.78,48.6-21.74,54.62-28.23-10.66,1.7-48.47,21.24-54.62,28.23Z" fill="#7a8479"/><path d="m25.23,184.42c-8.29-.76-16.63-1.19-24.85-2.4-6.25-.92-7.7-4.01-5.22-9.9,1.18-2.8,2.89-5.49,4.82-7.85,13.17-16.1,28.23-30.23,45.09-42.39,2.72-1.96,5.84-3.45,8.94-4.77,8.46-3.6,16.39-2.45,23.31,3.63,3.92,3.45,7.85,7.04,11.07,11.12,6.16,7.8,5.96,14.88-.25,22.76-2.08,2.65-4.58,5.03-7.17,7.2-3.54,2.97-7.4,5.56-11.04,8.43-13.13,10.34-27.46,16.66-44.71,14.17Zm43.01-29.28c-2.55-5.08-6.29-4.08-9.83-2.85-5.82,2.03-11.49,4.49-17.32,6.47-3.62,1.23-7.48,2.84-12.02-.69,4.45-8.79,12.7-12.65,20.25-16.8,7.54-4.14,15.79-7.01,23.6-10.38-7.53-4.41-15.76-4.97-22.91.15-10.76,7.7-21.02,16.11-31.29,24.47-2.31,1.88-4.2,4.59-5.56,7.28-2.2,4.35-.69,8.21,4.05,9.45,15.18,3.96,38.24,2.76,51.03-17.09Z" fill="#7a8479"/></g></g></g></svg>